<svg fill="none" height="44" width="186" xmlns="http://www.w3.org/2000/svg"><path d="M158.862 0H185l-2.24 22h-11.709l.608-5.877h-2.752L168.332 22h-11.71zm13.309 11c.064-.65.128-1.289.192-1.917.042-.545.096-1.11.16-1.697s.117-1.09.16-1.509h-2.72L169.451 11zM156.615 0l-.608 5.877h-14.173l-.224 2.2h14.173l-1.056 10.372L150.376 22h-21.403l2.239-22zm-12.83 13.451h-2.751l-.256 2.672h2.72zm-56.938-.754L90.975 11l-3.872-.974L88.127 0h11.71l-.896 8.549h2.751L102.556 0h11.933l-.863 8.549h2.751L117.241 0h11.709l-.96 9.303-5.406 2.074 5.022 1.697-.895 8.926h-11.71l.864-8.549h-2.719L112.25 22h-11.934l.864-8.549h-2.72l-.639 5.752L94.334 22h-8.446l.96-9.303zM59.32 13.923h11.198l-.288 2.703h2.751l.448-4.4h-13.95L60.727 0h11.197l-.608 5.877h2.72L74.676 0h11.197l-1.887 18.449L79.635 22H58.487l.832-8.077zM27.87 22l.608-5.877h2.24L32.347 0h26.138l-2.24 22H44.538L46.17 5.877h-2.72l-1.311 12.697L37.083 22h-9.214zM0 22L2.24 0h25.626l-.96 9.523h-11.71l.385-3.646h-2.752l-1.024 10.246h2.72l.416-3.897h11.677l-.608 6.223L21.66 22z" fill="#fff"/><path d="M170.221 38.86h6.654l-.171 1.72h1.635l.266-2.8h-8.289l.741-7.78h6.654l-.361 3.74h1.616l.38-3.74H186l-1.122 11.74-2.585 2.26h-12.567zm-14.6-5.12l.361-3.74h13.745l-.342 3.74h-2.681L165.735 44h-8.422l.969-10.26zM138.995 30h7.091l-.514 5.44h1.635l.514-5.44h6.939l-.552 5.92-3.213 1.32 2.985 1.08-.551 5.68h-6.939l.513-5.44h-1.616l-.532 5.44h-7.091zm-16.858 0h15.532l-1.331 14h-6.958l.361-3.74h-1.635l-.342 3.74h-6.958zm7.909 7l.114-1.22c.025-.347.057-.707.095-1.08s.069-.693.095-.96h-1.616L128.43 37zm-25.8 7l1.33-14h15.228l-.893 9.42-2.586 2.24h-6.197L110.9 44zm7.623-10.26l-.456 4.82h1.635l.456-4.82zm-21.729 0l.361-3.74h13.745l-.342 3.74h-2.68l-.97 10.26h-8.422l.97-10.26zM73.644 30h6.958l-.532 5.44h1.634l.514-5.44h6.958l-1.331 14h-6.958l.513-5.44h-1.616L79.271 44h-6.958l1.33-14zm-16.858 0h15.532l-1.121 11.74L68.61 44H55.455zm5.97 10.26h1.635l.608-6.52h-1.616zM39.799 30h7.09l-.513 5.44h1.636l.513-5.44h6.939l-.551 5.92-3.213 1.32 2.984 1.08-.55 5.68h-6.94l.513-5.44h-1.616L45.56 44h-7.091zm-21.61 0H33.72L32.6 41.74 30.013 44H16.858l1.33-14zm5.969 10.26h1.635l.608-6.52h-1.616zM0 44l1.33-14h15.533l-1.33 14h-6.96l.97-10.26H7.909L6.959 44z" fill="#ca322b"/></svg>